<svg width="24" height="24" viewBox="0 0 24 24" fill="none" xmlns="http://www.w3.org/2000/svg">
<path opacity="0.15" d="M15.48 3H7.52C4.07 3 2 5.06 2 8.52V16.47C2 19.94 4.07 22 7.52 22H15.47C18.93 22 20.99 19.94 20.99 16.48V8.52C21 5.06 18.93 3 15.48 3Z" fill="black"/>
<path d="M21.02 2.97783C19.23 1.17783 17.48 1.13783 15.64 2.97783L14.51 4.09783C14.41 4.19783 14.38 4.33783 14.42 4.46783C15.12 6.91783 17.08 8.87783 19.53 9.57783C19.56 9.58783 19.61 9.58783 19.64 9.58783C19.74 9.58783 19.84 9.54783 19.91 9.47783L21.02 8.35783C21.93 7.44783 22.38 6.57783 22.38 5.68783C22.38 4.78783 21.93 3.89783 21.02 2.97783ZM17.86 10.4198C17.59 10.2898 17.33 10.1598 17.09 10.0098C16.89 9.88983 16.69 9.75983 16.5 9.61983C16.34 9.51983 16.16 9.36983 15.98 9.21983C15.96 9.20983 15.9 9.15983 15.82 9.07983C15.51 8.82983 15.18 8.48983 14.87 8.11983C14.85 8.09983 14.79 8.03983 14.74 7.94983C14.64 7.83983 14.49 7.64983 14.36 7.43983C14.25 7.29983 14.12 7.09983 14 6.88983C13.85 6.63983 13.72 6.38983 13.6 6.12983C13.47 5.84983 13.37 5.58983 13.28 5.33983L7.89998 10.7198C7.54998 11.0698 7.20998 11.7298 7.13998 12.2198L6.70998 15.1998C6.61998 15.8298 6.78998 16.4198 7.17998 16.8098C7.50998 17.1398 7.95998 17.3098 8.45998 17.3098C8.56998 17.3098 8.67998 17.2998 8.78998 17.2898L11.76 16.8698C12.25 16.7998 12.91 16.4698 13.26 16.1098L18.64 10.7298C18.39 10.6498 18.14 10.5398 17.86 10.4198Z" fill="black"/>
</svg>
