<svg width="24" height="24" viewBox="0 0 24 24" fill="none" xmlns="http://www.w3.org/2000/svg">
<path opacity="0.15" d="M20.6 4.10205V6.30205C20.6 7.10205 20.1 8.10205 19.6 8.60205L15.3 12.4021C14.7 12.9021 14.3 13.9021 14.3 14.7021V19.0021C14.3 19.6021 13.9 20.4021 13.4 20.7021L12 21.6021C10.7 22.4021 8.89998 21.5021 8.89998 19.9021V14.6021C8.89998 13.9021 8.49998 13.0021 8.09998 12.5021L7.09998 11.4521L12.92 2.10205H18.6C19.7 2.10205 20.6 3.00205 20.6 4.10205Z" fill="black"/>
<path d="M11.3 2.10205L6.12002 10.4121L4.30002 8.50205C3.80002 8.00205 3.40002 7.10205 3.40002 6.50205V4.20205C3.40002 3.00205 4.30002 2.10205 5.40002 2.10205H11.3Z" fill="black"/>
</svg>
