<svg width="24" height="24" viewBox="0 0 24 24" fill="none" xmlns="http://www.w3.org/2000/svg">
<path opacity="0.15" d="M21.08 8.58V15.42C21.08 16.54 20.48 17.58 19.51 18.15L13.57 21.58C12.6 22.14 11.4 22.14 10.42 21.58L4.48004 18.15C4.00181 17.8727 3.60497 17.4745 3.32939 16.9953C3.0538 16.5161 2.90918 15.9728 2.91004 15.42V8.58C2.91004 7.46 3.51004 6.42 4.48004 5.85L10.42 2.42C11.39 1.86 12.59 1.86 13.57 2.42L19.51 5.85C20.48 6.42 21.08 7.45 21.08 8.58Z" fill="black"/>
<path d="M9.75 11.9989V10.7989C9.75 9.25894 10.84 8.62894 12.17 9.39894L13.21 9.99894L14.25 10.5989C15.58 11.3689 15.58 12.6289 14.25 13.3989L13.21 13.9989L12.17 14.5989C10.84 15.3689 9.75 14.7389 9.75 13.1989V11.9989Z" fill="black"/>
</svg>
